<?xml version="1.0" standalone="no"?>
<!DOCTYPE svg PUBLIC "-//W3C//DTD SVG 20010904//EN"
 "http://www.w3.org/TR/2001/REC-SVG-20010904/DTD/svg10.dtd">
<svg version="1.0" xmlns="http://www.w3.org/2000/svg"
 width="225.000000pt" height="225.000000pt" viewBox="0 0 225.000000 225.000000"
 preserveAspectRatio="xMidYMid meet">
<metadata>
Created by potrace 1.16, written by Peter Selinger 2001-2019
</metadata>
<g transform="translate(0.000000,225.000000) scale(0.100000,-0.100000)"
fill="#000000" stroke="none">
<path d="M1042 1950 c-161 -22 -323 -107 -421 -218 -61 -68 -120 -179 -152
-282 -29 -92 -32 -258 -6 -360 8 -36 14 -66 13 -68 -9 -8 -112 88 -152 141
-50 66 -115 195 -134 265 -13 52 -30 46 -30 -11 1 -123 176 -425 291 -501 51
-34 72 -68 84 -135 9 -53 14 -58 70 -100 33 -25 78 -68 101 -95 31 -39 54 -56
94 -70 39 -14 76 -40 140 -101 106 -101 138 -119 210 -119 68 -1 112 23 158
84 65 88 117 133 191 168 62 30 79 44 106 87 18 27 50 66 70 85 36 35 75 97
75 122 0 7 28 42 62 78 117 123 207 284 260 463 22 78 22 79 3 93 -23 17 -26
14 -49 -56 -41 -122 -98 -223 -163 -289 -35 -35 -66 -61 -69 -59 -2 3 0 18 7
34 6 16 13 72 16 124 7 125 -13 218 -73 339 -83 169 -253 312 -433 365 -69 20
-188 27 -269 16z m346 -315 c132 -31 234 -111 292 -228 45 -91 56 -172 38
-274 -12 -71 -12 -86 0 -109 29 -55 -4 -162 -84 -269 -24 -33 -58 -79 -74
-102 -21 -29 -49 -52 -92 -74 -45 -22 -90 -59 -155 -125 -147 -150 -177 -149
-346 11 -116 110 -136 138 -137 191 0 28 -4 33 -35 38 -63 12 -85 87 -45 154
18 28 25 32 65 32 41 0 45 -2 45 -24 0 -28 20 -51 51 -61 29 -10 73 24 77 60
3 25 6 27 39 22 20 -4 44 -14 54 -23 17 -15 17 -19 3 -45 -8 -16 -19 -29 -24
-29 -15 0 -12 -40 3 -44 27 -7 133 -28 142 -27 76 2 131 22 119 43 -4 5 -10 5
-18 -1 -18 -15 -105 -16 -168 -1 l-58 13 21 34 c40 64 8 123 -95 175 -95 47
-136 124 -136 254 0 127 47 232 143 321 102 94 225 123 375 88z"/>
<path d="M1465 1025 c-16 -14 -51 -32 -77 -41 -60 -20 -123 -65 -143 -103 -21
-42 -20 -44 22 -21 50 27 77 27 63 1 -5 -11 -10 -27 -10 -36 0 -23 45 -65 70
-65 32 0 73 46 67 75 -3 18 2 29 19 40 13 9 24 25 24 37 0 12 7 29 15 38 23
25 35 76 22 89 -17 17 -39 13 -72 -14z"/>
<path d="M914 625 c32 -105 134 -228 200 -240 59 -12 86 2 169 88 74 77 107
127 107 161 0 13 -3 13 -27 0 -33 -17 -79 -18 -138 -3 -32 8 -48 8 -65 -1 -13
-7 -26 -8 -33 -2 -22 17 -55 20 -102 10 -39 -8 -50 -7 -81 11 -19 12 -37 21
-39 21 -2 0 2 -20 9 -45z m189 -135 c4 0 7 -8 7 -17 0 -15 1 -15 13 2 11 14
28 18 77 19 39 1 65 -3 67 -10 2 -7 -18 -28 -45 -48 -70 -51 -108 -49 -167 5
-58 54 -59 69 -2 58 23 -4 45 -8 50 -9z"/>
</g>
</svg>
